<?xml version="1.0" encoding="utf-8"?>
<!-- Generator: Adobe Illustrator 27.8.1, SVG Export Plug-In . SVG Version: 6.00 Build 0)  -->
<svg version="1.1" id="Layer_1" xmlns="http://www.w3.org/2000/svg" xmlns:xlink="http://www.w3.org/1999/xlink" x="0px" y="0px"
	 viewBox="0 0 419.5 595.3" style="enable-background:new 0 0 419.5 595.3;" xml:space="preserve">
<g>
	<g>
		<path d="M138.6,171.5c17.3,17.3,34.6,34.6,51.9,51.9c27.6,27.6,55.2,55.2,82.8,82.8c6.4,6.4,12.7,12.7,19.1,19.1
			c6.8,6.8,17.4-3.8,10.6-10.6c-17.3-17.3-34.6-34.6-51.9-51.9c-27.6-27.6-55.2-55.2-82.8-82.8c-6.4-6.4-12.7-12.7-19.1-19.1
			C142.4,154.1,131.7,164.7,138.6,171.5L138.6,171.5z"/>
	</g>
</g>
<g>
	<g>
		<path d="M292.8,160.8c-17.3,17.3-34.6,34.6-51.9,51.9c-27.6,27.6-55.2,55.2-82.8,82.8c-6.4,6.4-12.7,12.7-19.1,19.1
			c-6.8,6.8,3.8,17.4,10.6,10.6c17.3-17.3,34.6-34.6,51.9-51.9c27.6-27.6,55.2-55.2,82.8-82.8c6.4-6.4,12.7-12.7,19.1-19.1
			C310.2,164.5,299.6,153.9,292.8,160.8L292.8,160.8z"/>
	</g>
</g>
</svg>
